<?xml version="1.0" standalone="no"?><!-- Generator: Gravit.io --><svg xmlns="http://www.w3.org/2000/svg" xmlns:xlink="http://www.w3.org/1999/xlink" style="isolation:isolate" viewBox="0 0 297 148.5" width="297" height="148.5"><defs><clipPath id="_clipPath_vNVosnYo5mYc0SX0rnrWjNAXJji7FkE2"><rect width="297" height="148.5"/></clipPath></defs><g clip-path="url(#_clipPath_vNVosnYo5mYc0SX0rnrWjNAXJji7FkE2)"><path d=" M -309 -228 L -309 560.599 L 481.749 560.599 L 481.749 -228 L -309 -228 Z " fill="none"/><path d=" M -309 -228 L -309 560.599 L 481.749 560.599 L 481.749 -228 L -309 -228 Z " fill="none"/><path d=" M -309 -228 L -309 560.599 L 481.749 560.599 L 481.749 -228 L -309 -228 Z " fill="none"/><path d=" M -309 -228 L -309 560.599 L 481.749 560.599 L 481.749 -228 L -309 -228 Z " fill="none"/><path d=" M -309 -228 L -309 560.599 L 481.749 560.599 L 481.749 -228 L -309 -228 Z " fill="none"/><path d=" M -309 -228 L -309 560.599 L 481.749 560.599 L 481.749 -228 L -309 -228 Z " fill="none"/><path d=" M -309 -228 L -309 560.599 L 481.749 560.599 L 481.749 -228 L -309 -228 Z " fill="none"/><path d=" M -309 -228 L -309 560.599 L 481.749 560.599 L 481.749 -228 L -309 -228 Z " fill="none"/><path d=" M -309 -228 L -309 560.599 L 481.749 560.599 L 481.749 -228 L -309 -228 Z " fill="none"/><path d=" M -309 -228 L -309 560.599 L 481.749 560.599 L 481.749 -228 L -309 -228 Z " fill="none"/><path d=" M -309 -228 L -309 560.599 L 481.749 560.599 L 481.749 -228 L -309 -228 Z " fill="none"/><path d=" M -309 -228 L -309 560.599 L 481.749 560.599 L 481.749 -228 L -309 -228 Z " fill="none"/><path d=" M -309 -228 L -309 560.599 L 481.749 560.599 L 481.749 -228 L -309 -228 Z " fill="none"/><path d=" M -309 -228 L -309 560.599 L 481.749 560.599 L 481.749 -228 L -309 -228 Z " fill="none"/><path d=" M -309 -228 L -309 560.599 L 481.749 560.599 L 481.749 -228 L -309 -228 Z " fill="none"/><path d=" M -309 -228 L -309 560.599 L 481.749 560.599 L 481.749 -228 L -309 -228 Z " fill="none"/><path d=" M -309 -228 L -309 560.599 L 481.749 560.599 L 481.749 -228 L -309 -228 Z " fill="none"/><path d=" M -309 -228 L -309 560.599 L 481.749 560.599 L 481.749 -228 L -309 -228 Z " fill="none"/><path d=" M -309 -228 L -309 560.599 L 481.749 560.599 L 481.749 -228 L -309 -228 Z " fill="none"/><path d=" M -309 -228 L -309 560.599 L 481.749 560.599 L 481.749 -228 L -309 -228 Z " fill="none"/><path d=" M -309 -228 L -309 560.599 L 481.749 560.599 L 481.749 -228 L -309 -228 Z " fill="none"/><path d=" M -309 -228 L -309 560.599 L 481.749 560.599 L 481.749 -228 L -309 -228 Z " fill="none"/><path d=" M -309 -228 L -309 560.599 L 481.749 560.599 L 481.749 -228 L -309 -228 Z " fill="none"/><path d=" M -309 -228 L -309 560.599 L 481.749 560.599 L 481.749 -228 L -309 -228 Z " fill="none"/><path d=" M -309 -228 L -309 560.599 L 481.749 560.599 L 481.749 -228 L -309 -228 Z " fill="none"/><path d=" M -309 -228 L -309 560.599 L 481.749 560.599 L 481.749 -228 L -309 -228 Z " fill="none"/><path d=" M -309 -228 L -309 560.599 L 481.749 560.599 L 481.749 -228 L -309 -228 Z " fill="none"/><path d=" M -309 -228 L -309 560.599 L 481.749 560.599 L 481.749 -228 L -309 -228 Z " fill="none"/><path d=" M -309 -228 L -309 560.599 L 481.749 560.599 L 481.749 -228 L -309 -228 Z " fill="none"/><path d=" M -309 -228 L -309 560.599 L 481.749 560.599 L 481.749 -228 L -309 -228 Z " fill="none"/><path d=" M -309 -228 L -309 560.599 L 481.749 560.599 L 481.749 -228 L -309 -228 Z " fill="none"/><path d=" M -210 -211 L -210 577.599 L 580.749 577.599 L 580.749 -211 L -210 -211 Z " fill="none"/><path d=" M -309 -228 L -309 560.599 L 481.749 560.599 L 481.749 -228 L -309 -228 Z " fill="none"/><path d=" M -309 -228 L -309 560.599 L 481.749 560.599 L 481.749 -228 L -309 -228 Z " fill="none"/><path d=" M -309 -228 L -309 560.599 L 481.749 560.599 L 481.749 -228 L -309 -228 Z " fill="none"/><path d=" M -309 -228 L -309 560.599 L 481.749 560.599 L 481.749 -228 L -309 -228 Z " fill="none"/><path d=" M -309 -228 L -309 560.599 L 481.749 560.599 L 481.749 -228 L -309 -228 Z " fill="none"/><path d=" M -309 -228 L -309 560.599 L 481.749 560.599 L 481.749 -228 L -309 -228 Z " fill="none"/><path d=" M -309 -228 L -309 560.599 L 481.749 560.599 L 481.749 -228 L -309 -228 Z " fill="none"/><path d=" M -309 -228 L -309 560.599 L 481.749 560.599 L 481.749 -228 L -309 -228 Z " fill="none"/><path d=" M -309 -228 L -309 560.599 L 481.749 560.599 L 481.749 -228 L -309 -228 Z " fill="none"/><path d=" M -309 -228 L -309 560.599 L 481.749 560.599 L 481.749 -228 L -309 -228 Z " fill="none"/><path d=" M -309 -228 L -309 560.599 L 481.749 560.599 L 481.749 -228 L -309 -228 Z " fill="none"/><path d=" M -309 -228 L -309 560.599 L 481.749 560.599 L 481.749 -228 L -309 -228 Z " fill="none"/><path d=" M -309 -228 L -309 560.599 L 481.749 560.599 L 481.749 -228 L -309 -228 Z " fill="none"/><path d=" M -309 -228 L -309 560.599 L 481.749 560.599 L 481.749 -228 L -309 -228 Z " fill="none"/><path d=" M -309 -228 L -309 560.599 L 481.749 560.599 L 481.749 -228 L -309 -228 Z " fill="none"/><path d=" M -309 -228 L -309 560.599 L 481.749 560.599 L 481.749 -228 L -309 -228 Z " fill="none"/><path d=" M -309 -228 L -309 560.599 L 481.749 560.599 L 481.749 -228 L -309 -228 Z " fill="none"/><path d=" M -309 -228 L -309 560.599 L 481.749 560.599 L 481.749 -228 L -309 -228 Z " fill="none"/><path d=" M -309 -228 L -309 560.599 L 481.749 560.599 L 481.749 -228 L -309 -228 Z " fill="none"/><path d=" M -309 -228 L -309 560.599 L 481.749 560.599 L 481.749 -228 L -309 -228 Z " fill="none"/><path d=" M -309 -228 L -309 560.599 L 481.749 560.599 L 481.749 -228 L -309 -228 Z " fill="none"/><path d=" M -309 -228 L -309 560.599 L 481.749 560.599 L 481.749 -228 L -309 -228 Z " fill="none"/><path d=" M -309 -228 L -309 560.599 L 481.749 560.599 L 481.749 -228 L -309 -228 Z " fill="none"/><path d=" M -309 -228 L -309 560.599 L 481.749 560.599 L 481.749 -228 L -309 -228 Z " fill="none"/><path d=" M -309 -228 L -309 560.599 L 481.749 560.599 L 481.749 -228 L -309 -228 Z " fill="none"/><path d=" M -309 -228 L -309 560.599 L 481.749 560.599 L 481.749 -228 L -309 -228 Z " fill="none"/><path d=" M -309 -228 L -309 560.599 L 481.749 560.599 L 481.749 -228 L -309 -228 Z " fill="none"/><clipPath id="_clipPath_RkKKr6D8PO3t7CcqrSEWN7IN3rFPU9nY"><path d=" M -323 -260 L -323 528.599 L 467.749 528.599 L 467.749 -260 L -323 -260 Z " fill="rgb(255,255,255)"/></clipPath><g clip-path="url(#_clipPath_RkKKr6D8PO3t7CcqrSEWN7IN3rFPU9nY)"><path d=" M 182.247 118.855 C 182.247 118.855 176.781 94.261 199.126 79.035 C 204.267 75.531 210.237 72.663 216.515 69.95 C 237.738 60.778 300.838 4.197 309 -20 C 309 -20 268.026 53.532 244.384 69.524 C 220.742 85.514 187.197 96.279 182.247 118.855 Z " fill="rgb(0,172,205)"/></g><clipPath id="_clipPath_N2z0rsp0y6VeCZPYWQJNNyw5X10S6zyz"><path d=" M -323 -260 L -323 528.599 L 467.749 528.599 L 467.749 -260 L -323 -260 Z " fill="rgb(255,255,255)"/></clipPath><g clip-path="url(#_clipPath_N2z0rsp0y6VeCZPYWQJNNyw5X10S6zyz)"><path d=" M 188.564 117.496 C 188.564 117.496 190.524 99.759 221.891 90.636 C 249.982 82.465 259.316 82.17 269.462 70.359 C 269.462 70.359 261.394 85.828 229.486 96.593 C 197.578 107.358 193.056 110.389 188.564 117.496 Z " fill="rgb(125,43,173)"/></g><clipPath id="_clipPath_1CPE8Yj8xq6T99tGO2hhJ1hkXp2SXzZ3"><path d=" M -323 -260 L -323 528.599 L 467.749 528.599 L 467.749 -260 L -323 -260 Z " fill="rgb(255,255,255)"/></clipPath><g clip-path="url(#_clipPath_1CPE8Yj8xq6T99tGO2hhJ1hkXp2SXzZ3)"><path d=" M 194.544 117.496 C 194.544 117.496 195.581 111.732 211.141 107.277 C 215.725 105.965 221.254 104.738 227.729 103.596 C 251.222 99.453 254.147 100.46 261.422 95.443 C 261.422 95.443 254.722 105.373 231.271 109.553 C 207.82 113.734 199.271 113.607 194.544 117.496 Z " fill="rgb(234,35,134)"/></g><clipPath id="_clipPath_MUp0JyTLi39r8bNicrLBKpqdJTq4c7ri"><path d=" M -323 -260 L -323 528.599 L 467.749 528.599 L 467.749 -260 L -323 -260 Z " fill="rgb(255,255,255)"/></clipPath><g clip-path="url(#_clipPath_MUp0JyTLi39r8bNicrLBKpqdJTq4c7ri)"><path d=" M 215.185 89.806 C 215.185 89.806 261.653 69.254 270.212 49.311 C 270.212 49.311 265.629 70.164 245.519 79.298 C 234.451 84.324 215.185 89.806 215.185 89.806 Z " fill="rgb(0,0,255)"/></g><path d=" M -323 -260 L -323 528.599 L 467.749 528.599 L 467.749 -260 L -323 -260 Z " fill="none" vector-effect="non-scaling-stroke" stroke-width="1" stroke="rgb(0,0,0)" stroke-linejoin="miter" stroke-linecap="square" stroke-miterlimit="3"/><path d=" M 229.486 100.251 C 228.502 100.253 251.933 95.443 269.462 79.035 C 269.462 79.035 261.422 100.18 229.486 100.251 Z " fill="rgb(155,13,141)"/><path d=" M -309 -228 L -309 560.599 L 481.749 560.599 L 481.749 -228 L -309 -228 Z " fill="none"/><path d=" M -309 -228 L -309 560.599 L 481.749 560.599 L 481.749 -228 L -309 -228 Z " fill="none"/><path d=" M -309 -228 L -309 560.599 L 481.749 560.599 L 481.749 -228 L -309 -228 Z " fill="none"/><path d=" M -309 -228 L -309 560.599 L 481.749 560.599 L 481.749 -228 L -309 -228 Z " fill="none"/><path d=" M -309 -228 L -309 560.599 L 481.749 560.599 L 481.749 -228 L -309 -228 Z " fill="none"/><path d=" M -309 -228 L -309 560.599 L 481.749 560.599 L 481.749 -228 L -309 -228 Z " fill="none"/><path d=" M -309 -228 L -309 560.599 L 481.749 560.599 L 481.749 -228 L -309 -228 Z " fill="none"/><path d=" M -309 -228 L -309 560.599 L 481.749 560.599 L 481.749 -228 L -309 -228 Z " fill="none"/><path d=" M -309 -228 L -309 560.599 L 481.749 560.599 L 481.749 -228 L -309 -228 Z " fill="none"/><path d=" M -309 -228 L -309 560.599 L 481.749 560.599 L 481.749 -228 L -309 -228 Z " fill="none"/><path d=" M -309 -228 L -309 560.599 L 481.749 560.599 L 481.749 -228 L -309 -228 Z " fill="none"/><path d=" M -309 -228 L -309 560.599 L 481.749 560.599 L 481.749 -228 L -309 -228 Z " fill="none"/><path d=" M -309 -228 L -309 560.599 L 481.749 560.599 L 481.749 -228 L -309 -228 Z " fill="none"/><path d=" M -309 -228 L -309 560.599 L 481.749 560.599 L 481.749 -228 L -309 -228 Z " fill="none"/><path d=" M -309 -228 L -309 560.599 L 481.749 560.599 L 481.749 -228 L -309 -228 Z " fill="none"/><path d=" M -309 -228 L -309 560.599 L 481.749 560.599 L 481.749 -228 L -309 -228 Z " fill="none"/><path d=" M -309 -228 L -309 560.599 L 481.749 560.599 L 481.749 -228 L -309 -228 Z " fill="none"/><path d=" M -309 -228 L -309 560.599 L 481.749 560.599 L 481.749 -228 L -309 -228 Z " fill="none"/><path d=" M -309 -228 L -309 560.599 L 481.749 560.599 L 481.749 -228 L -309 -228 Z " fill="none"/><path d=" M -309 -228 L -309 560.599 L 481.749 560.599 L 481.749 -228 L -309 -228 Z " fill="none"/><path d=" M -309 -228 L -309 560.599 L 481.749 560.599 L 481.749 -228 L -309 -228 Z " fill="none"/><path d=" M -309 -228 L -309 560.599 L 481.749 560.599 L 481.749 -228 L -309 -228 Z " fill="none"/><path d=" M -309 -228 L -309 560.599 L 481.749 560.599 L 481.749 -228 L -309 -228 Z " fill="none"/><path d=" M -309 -228 L -309 560.599 L 481.749 560.599 L 481.749 -228 L -309 -228 Z " fill="none"/><path d=" M -309 -228 L -309 560.599 L 481.749 560.599 L 481.749 -228 L -309 -228 Z " fill="none"/><path d=" M -309 -228 L -309 560.599 L 481.749 560.599 L 481.749 -228 L -309 -228 Z " fill="none"/><path d=" M -309 -228 L -309 560.599 L 481.749 560.599 L 481.749 -228 L -309 -228 Z " fill="none"/><path d=" M -309 -228 L -309 560.599 L 481.749 560.599 L 481.749 -228 L -309 -228 Z " fill="none"/><clipPath id="_clipPath_0wZTyKTQnuUBAaIcVB3PZ29YivSUNmLn"><path d=" M -309 -228 L -309 560.599 L 481.749 560.599 L 481.749 -228 L -309 -228 Z " fill="rgb(255,255,255)"/></clipPath><g clip-path="url(#_clipPath_0wZTyKTQnuUBAaIcVB3PZ29YivSUNmLn)"><line x1="375.958" y1="456.97" x2="375.886" y2="457.06"/></g><path d=" M -309 -228 L -309 560.599 L 481.749 560.599 L 481.749 -228 L -309 -228 Z " fill="none"/><path d=" M 83.48 144.688 L 83.48 144.688 L 83.48 144.688 Q 85.784 144.688 87.179 143.446 L 87.179 143.446 L 87.179 143.446 Q 88.574 142.204 88.574 139.702 L 88.574 139.702 L 88.574 139.702 Q 88.574 137.2 86.999 135.724 L 86.999 135.724 L 86.999 135.724 Q 85.424 134.248 83.12 134.248 L 83.12 134.248 L 83.12 134.248 Q 81.482 134.248 80.6 134.32 L 80.6 134.32 L 80.6 144.562 L 80.6 144.562 Q 81.68 144.688 83.48 144.688 Z  M 83.12 133.51 L 83.12 133.51 L 83.12 133.51 Q 85.82 133.51 87.629 135.175 L 87.629 135.175 L 87.629 135.175 Q 89.438 136.84 89.438 139.702 L 89.438 139.702 L 89.438 139.702 Q 89.438 142.564 87.773 144.004 L 87.773 144.004 L 87.773 144.004 Q 86.108 145.444 83.48 145.444 L 83.48 145.444 L 83.48 145.444 Q 81.662 145.444 79.736 145.264 L 79.736 145.264 L 79.736 133.618 L 79.736 133.618 Q 81.176 133.51 83.12 133.51 Z  M 98.672 145.3 L 93.038 145.3 L 93.038 133.618 L 98.492 133.618 L 98.492 134.338 L 93.866 134.338 L 93.866 138.586 L 98.042 138.586 L 98.042 139.288 L 93.866 139.288 L 93.866 144.544 L 98.672 144.544 L 98.672 145.3 L 98.672 145.3 Z  M 104.342 134.122 L 104.342 134.122 L 104.342 134.122 Q 103.37 134.122 102.758 134.59 L 102.758 134.59 L 102.758 134.59 Q 102.146 135.058 102.146 135.904 L 102.146 135.904 L 102.146 135.904 Q 102.146 136.876 102.956 137.65 L 102.956 137.65 L 102.956 137.65 Q 103.532 138.208 104.441 138.829 L 104.441 138.829 L 104.441 138.829 Q 105.35 139.45 105.692 139.72 L 105.692 139.72 L 105.692 139.72 Q 106.034 139.99 106.52 140.458 L 106.52 140.458 L 106.52 140.458 Q 107.402 141.34 107.402 142.492 L 107.402 142.492 L 107.402 142.492 Q 107.402 143.986 106.403 144.751 L 106.403 144.751 L 106.403 144.751 Q 105.404 145.516 103.613 145.516 L 103.613 145.516 L 103.613 145.516 Q 101.822 145.516 100.616 144.58 L 100.616 144.58 L 101.048 143.95 L 101.048 143.95 Q 102.272 144.778 103.64 144.778 L 103.64 144.778 L 103.64 144.778 Q 105.008 144.778 105.773 144.202 L 105.773 144.202 L 105.773 144.202 Q 106.538 143.626 106.538 142.582 L 106.538 142.582 L 106.538 142.582 Q 106.538 141.682 105.764 140.926 L 105.764 140.926 L 105.764 140.926 Q 105.224 140.386 104.315 139.756 L 104.315 139.756 L 104.315 139.756 Q 103.406 139.126 103.046 138.847 L 103.046 138.847 L 103.046 138.847 Q 102.686 138.568 102.2 138.1 L 102.2 138.1 L 102.2 138.1 Q 101.282 137.182 101.282 135.976 L 101.282 135.976 L 101.282 135.976 Q 101.282 134.77 102.137 134.086 L 102.137 134.086 L 102.137 134.086 Q 102.992 133.402 104.504 133.402 L 104.504 133.402 L 104.504 133.402 Q 106.016 133.402 107.222 133.996 L 107.222 133.996 L 106.916 134.662 L 106.916 134.662 Q 105.8 134.122 104.342 134.122 Z  M 111.542 145.3 L 110.714 145.3 L 110.714 133.618 L 111.542 133.618 L 111.542 145.3 L 111.542 145.3 Z  M 120.74 134.176 L 120.74 134.176 L 120.74 134.176 Q 118.742 134.176 117.383 135.697 L 117.383 135.697 L 117.383 135.697 Q 116.024 137.218 116.024 139.432 L 116.024 139.432 L 116.024 139.432 Q 116.024 141.646 117.554 143.185 L 117.554 143.185 L 117.554 143.185 Q 119.084 144.724 121.163 144.724 L 121.163 144.724 L 121.163 144.724 Q 123.242 144.724 124.394 144.238 L 124.394 144.238 L 124.394 139.432 L 125.222 139.432 L 125.222 144.616 L 125.222 144.616 Q 123.818 145.48 121.244 145.48 L 121.244 145.48 L 121.244 145.48 Q 118.67 145.48 116.906 143.734 L 116.906 143.734 L 116.906 143.734 Q 115.142 141.988 115.142 139.441 L 115.142 139.441 L 115.142 139.441 Q 115.142 136.894 116.735 135.166 L 116.735 135.166 L 116.735 135.166 Q 118.328 133.438 120.848 133.438 L 120.848 133.438 L 120.848 133.438 Q 122.882 133.438 124.826 134.068 L 124.826 134.068 L 124.61 134.752 L 124.61 134.752 Q 122.738 134.176 120.74 134.176 Z  M 129.974 145.3 L 129.146 145.3 L 129.146 133.546 L 129.542 133.546 L 137.21 142.366 L 137.21 142.366 Q 137.624 142.834 137.975 143.293 L 137.975 143.293 L 137.975 143.293 Q 138.326 143.752 138.344 143.77 L 138.344 143.77 L 138.344 143.77 Q 138.308 143.338 138.308 142.078 L 138.308 142.078 L 138.308 133.618 L 139.136 133.618 L 139.136 145.372 L 138.74 145.372 L 130.928 136.408 L 129.938 135.202 L 129.938 135.202 Q 129.974 135.562 129.974 136.894 L 129.974 136.894 L 129.974 145.3 L 129.974 145.3 Z  M 38.582 142.456 L 38.582 142.456 L 41.948 133.852 L 42.47 133.852 L 45.404 142.51 L 45.836 143.968 L 45.836 143.968 Q 45.89 143.626 46.286 142.528 L 46.286 142.528 L 49.274 133.618 L 50.138 133.618 L 46.07 145.372 L 45.584 145.372 L 45.584 145.372 Q 42.578 136.75 42.47 136.408 L 42.47 136.408 L 42.47 136.408 Q 42.308 135.922 42.146 135.454 L 42.146 135.454 L 42.146 135.454 Q 42.056 135.76 41.66 136.732 L 41.66 136.732 L 38.258 145.372 L 37.772 145.372 L 33.668 133.618 L 34.586 133.618 L 37.556 142.384 L 37.556 142.384 Q 37.808 143.104 38.024 143.986 L 38.024 143.986 L 38.024 143.986 Q 38.114 143.626 38.582 142.456 Z  M 58.148 145.3 L 52.514 145.3 L 52.514 133.618 L 57.968 133.618 L 57.968 134.338 L 53.342 134.338 L 53.342 138.586 L 57.518 138.586 L 57.518 139.288 L 53.342 139.288 L 53.342 144.544 L 58.148 144.544 L 58.148 145.3 L 58.148 145.3 Z  M 61.442 145.264 L 61.442 133.672 L 61.442 133.672 Q 62.72 133.564 64.07 133.564 L 64.07 133.564 L 64.07 133.564 Q 65.42 133.564 66.383 134.212 L 66.383 134.212 L 66.383 134.212 Q 67.346 134.86 67.346 136.102 L 67.346 136.102 L 67.346 136.102 Q 67.346 137.038 66.842 137.83 L 66.842 137.83 L 66.842 137.83 Q 66.338 138.622 65.618 139.036 L 65.618 139.036 L 65.618 139.036 Q 66.788 139.378 67.562 140.26 L 67.562 140.26 L 67.562 140.26 Q 68.336 141.142 68.336 142.258 L 68.336 142.258 L 68.336 142.258 Q 68.336 143.806 67.355 144.598 L 67.355 144.598 L 67.355 144.598 Q 66.374 145.39 64.592 145.39 L 64.592 145.39 L 64.592 145.39 Q 62.81 145.39 61.442 145.264 L 61.442 145.264 L 61.442 145.264 Z  M 63.08 139.396 L 63.08 139.396 L 62.27 139.414 L 62.27 144.58 L 62.27 144.58 Q 63.044 144.652 64.772 144.652 L 64.772 144.652 L 64.772 144.652 Q 65.942 144.652 66.707 143.995 L 66.707 143.995 L 66.707 143.995 Q 67.472 143.338 67.472 142.339 L 67.472 142.339 L 67.472 142.339 Q 67.472 141.34 66.707 140.593 L 66.707 140.593 L 66.707 140.593 Q 65.942 139.846 64.718 139.54 L 64.718 139.54 L 64.718 139.54 Q 64.088 139.396 63.08 139.396 Z  M 66.536 136.084 L 66.536 136.084 L 66.536 136.084 Q 66.536 135.202 65.798 134.725 L 65.798 134.725 L 65.798 134.725 Q 65.06 134.248 64.034 134.248 L 64.034 134.248 L 64.034 134.248 Q 63.008 134.248 62.27 134.302 L 62.27 134.302 L 62.27 138.712 L 62.27 138.712 Q 63.836 138.712 64.772 138.802 L 64.772 138.802 L 64.772 138.802 Q 65.474 138.424 66.005 137.695 L 66.005 137.695 L 66.005 137.695 Q 66.536 136.966 66.536 136.084 Z  M 16.394 118.12 L 4.754 86.02 L 10.934 86.02 L 19.994 112.54 L 29.294 86.02 L 35.414 86.02 L 23.354 118.12 L 16.394 118.12 L 16.394 118.12 Z  M 53.714 118.48 L 53.714 118.48 Q 48.614 118.48 45.554 117.04 L 45.554 117.04 L 45.554 117.04 Q 42.494 115.6 41.024 112.03 L 41.024 112.03 L 41.024 112.03 Q 39.554 108.46 39.554 102.04 L 39.554 102.04 L 39.554 102.04 Q 39.554 95.44 41.054 91.87 L 41.054 91.87 L 41.054 91.87 Q 42.554 88.3 45.584 86.95 L 45.584 86.95 L 45.584 86.95 Q 48.614 85.6 53.714 85.6 L 53.714 85.6 L 53.714 85.6 Q 58.814 85.6 61.844 86.98 L 61.844 86.98 L 61.844 86.98 Q 64.874 88.36 66.374 91.93 L 66.374 91.93 L 66.374 91.93 Q 67.874 95.5 67.874 102.04 L 67.874 102.04 L 67.874 102.04 Q 67.874 108.52 66.404 112.09 L 66.404 112.09 L 66.404 112.09 Q 64.934 115.66 61.904 117.07 L 61.904 117.07 L 61.904 117.07 Q 58.874 118.48 53.714 118.48 L 53.714 118.48 L 53.714 118.48 Z  M 53.714 113.56 L 53.714 113.56 Q 56.714 113.56 58.424 112.75 L 58.424 112.75 L 58.424 112.75 Q 60.134 111.94 61.004 109.45 L 61.004 109.45 L 61.004 109.45 Q 61.874 106.96 61.874 101.98 L 61.874 101.98 L 61.874 101.98 Q 61.874 97 61.004 94.51 L 61.004 94.51 L 61.004 94.51 Q 60.134 92.02 58.424 91.24 L 58.424 91.24 L 58.424 91.24 Q 56.714 90.46 53.714 90.46 L 53.714 90.46 L 53.714 90.46 Q 50.654 90.46 49.004 91.24 L 49.004 91.24 L 49.004 91.24 Q 47.354 92.02 46.484 94.51 L 46.484 94.51 L 46.484 94.51 Q 45.614 97 45.614 101.98 L 45.614 101.98 L 45.614 101.98 Q 45.614 107.02 46.484 109.51 L 46.484 109.51 L 46.484 109.51 Q 47.354 112 49.004 112.78 L 49.004 112.78 L 49.004 112.78 Q 50.654 113.56 53.714 113.56 L 53.714 113.56 L 53.714 113.56 Z  M 88.274 118.48 L 88.274 118.48 Q 83.174 118.48 80.114 117.04 L 80.114 117.04 L 80.114 117.04 Q 77.054 115.6 75.584 112.03 L 75.584 112.03 L 75.584 112.03 Q 74.114 108.46 74.114 102.04 L 74.114 102.04 L 74.114 102.04 Q 74.114 95.44 75.614 91.87 L 75.614 91.87 L 75.614 91.87 Q 77.114 88.3 80.144 86.95 L 80.144 86.95 L 80.144 86.95 Q 83.174 85.6 88.274 85.6 L 88.274 85.6 L 88.274 85.6 Q 93.374 85.6 96.404 86.98 L 96.404 86.98 L 96.404 86.98 Q 99.434 88.36 100.934 91.93 L 100.934 91.93 L 100.934 91.93 Q 102.434 95.5 102.434 102.04 L 102.434 102.04 L 102.434 102.04 Q 102.434 108.52 100.964 112.09 L 100.964 112.09 L 100.964 112.09 Q 99.494 115.66 96.464 117.07 L 96.464 117.07 L 96.464 117.07 Q 93.434 118.48 88.274 118.48 L 88.274 118.48 L 88.274 118.48 Z  M 88.274 113.56 L 88.274 113.56 Q 91.274 113.56 92.984 112.75 L 92.984 112.75 L 92.984 112.75 Q 94.694 111.94 95.564 109.45 L 95.564 109.45 L 95.564 109.45 Q 96.434 106.96 96.434 101.98 L 96.434 101.98 L 96.434 101.98 Q 96.434 97 95.564 94.51 L 95.564 94.51 L 95.564 94.51 Q 94.694 92.02 92.984 91.24 L 92.984 91.24 L 92.984 91.24 Q 91.274 90.46 88.274 90.46 L 88.274 90.46 L 88.274 90.46 Q 85.214 90.46 83.564 91.24 L 83.564 91.24 L 83.564 91.24 Q 81.914 92.02 81.044 94.51 L 81.044 94.51 L 81.044 94.51 Q 80.174 97 80.174 101.98 L 80.174 101.98 L 80.174 101.98 Q 80.174 107.02 81.044 109.51 L 81.044 109.51 L 81.044 109.51 Q 81.914 112 83.564 112.78 L 83.564 112.78 L 83.564 112.78 Q 85.214 113.56 88.274 113.56 L 88.274 113.56 L 88.274 113.56 Z  M 120.974 118.48 L 120.974 118.48 Q 117.974 118.48 114.104 118.21 L 114.104 118.21 L 114.104 118.21 Q 110.234 117.94 108.614 117.46 L 108.614 117.46 L 108.614 113.86 L 122.114 113.86 L 122.114 113.86 Q 124.994 113.86 126.374 113.05 L 126.374 113.05 L 126.374 113.05 Q 127.754 112.24 127.754 109.78 L 127.754 109.78 L 127.754 108.46 L 127.754 108.46 Q 127.754 104.62 122.594 104.62 L 122.594 104.62 L 117.914 104.62 L 117.914 104.62 Q 113.294 104.62 110.774 102.73 L 110.774 102.73 L 110.774 102.73 Q 108.254 100.84 108.254 96.46 L 108.254 96.46 L 108.254 94.72 L 108.254 94.72 Q 108.254 90.1 110.984 87.91 L 110.984 87.91 L 110.984 87.91 Q 113.714 85.72 120.014 85.72 L 120.014 85.72 L 120.014 85.72 Q 122.654 85.72 126.194 86.05 L 126.194 86.05 L 126.194 86.05 Q 129.734 86.38 131.654 86.8 L 131.654 86.8 L 131.654 90.4 L 118.934 90.4 L 118.934 90.4 Q 116.114 90.4 114.794 91.36 L 114.794 91.36 L 114.794 91.36 Q 113.474 92.32 113.474 94.72 L 113.474 94.72 L 113.474 95.92 L 113.474 95.92 Q 113.474 98.2 114.764 98.92 L 114.764 98.92 L 114.764 98.92 Q 116.054 99.64 118.934 99.64 L 118.934 99.64 L 123.734 99.64 L 123.734 99.64 Q 128.234 99.64 130.604 101.74 L 130.604 101.74 L 130.604 101.74 Q 132.974 103.84 132.974 107.74 L 132.974 107.74 L 132.974 110.2 L 132.974 110.2 Q 132.974 114.82 129.944 116.65 L 129.944 116.65 L 129.944 116.65 Q 126.914 118.48 120.974 118.48 L 120.974 118.48 L 120.974 118.48 Z  M 139.814 118.12 L 139.814 72.34 L 145.814 72.34 L 145.814 89.5 L 145.814 89.5 Q 148.094 87.82 151.094 86.65 L 151.094 86.65 L 151.094 86.65 Q 154.094 85.48 157.094 85.48 L 157.094 85.48 L 157.094 85.48 Q 162.074 85.48 164.534 88.51 L 164.534 88.51 L 164.534 88.51 Q 166.994 91.54 166.994 96.46 L 166.994 96.46 L 166.994 118.12 L 160.994 118.12 L 160.994 97.18 L 160.994 97.18 Q 160.994 94.36 159.344 92.65 L 159.344 92.65 L 159.344 92.65 Q 157.694 90.94 154.934 90.94 L 154.934 90.94 L 154.934 90.94 Q 152.414 90.94 150.344 91.66 L 150.344 91.66 L 150.344 91.66 Q 148.274 92.38 145.814 93.82 L 145.814 93.82 L 145.814 118.12 L 139.814 118.12 L 139.814 118.12 Z " fill-rule="evenodd" fill="rgb(255,255,255)"/></g></svg>