<?xml version="1.0" standalone="no"?><!-- Generator: Gravit.io --><svg xmlns="http://www.w3.org/2000/svg" xmlns:xlink="http://www.w3.org/1999/xlink" style="isolation:isolate" viewBox="0 0 297 148.5" width="297" height="148.5"><defs><clipPath id="_clipPath_9m822KOJxRmNPIKseZrCe8Sg6tlukeKk"><rect width="297" height="148.5"/></clipPath></defs><g clip-path="url(#_clipPath_9m822KOJxRmNPIKseZrCe8Sg6tlukeKk)"><path d=" M -309 -228 L -309 560.599 L 481.749 560.599 L 481.749 -228 L -309 -228 Z " fill="none"/><path d=" M -309 -228 L -309 560.599 L 481.749 560.599 L 481.749 -228 L -309 -228 Z " fill="none"/><path d=" M -309 -228 L -309 560.599 L 481.749 560.599 L 481.749 -228 L -309 -228 Z " fill="none"/><path d=" M -309 -228 L -309 560.599 L 481.749 560.599 L 481.749 -228 L -309 -228 Z " fill="none"/><path d=" M -309 -228 L -309 560.599 L 481.749 560.599 L 481.749 -228 L -309 -228 Z " fill="none"/><path d=" M -309 -228 L -309 560.599 L 481.749 560.599 L 481.749 -228 L -309 -228 Z " fill="none"/><path d=" M -309 -228 L -309 560.599 L 481.749 560.599 L 481.749 -228 L -309 -228 Z " fill="none"/><path d=" M -309 -228 L -309 560.599 L 481.749 560.599 L 481.749 -228 L -309 -228 Z " fill="none"/><path d=" M -309 -228 L -309 560.599 L 481.749 560.599 L 481.749 -228 L -309 -228 Z " fill="none"/><path d=" M -309 -228 L -309 560.599 L 481.749 560.599 L 481.749 -228 L -309 -228 Z " fill="none"/><path d=" M -309 -228 L -309 560.599 L 481.749 560.599 L 481.749 -228 L -309 -228 Z " fill="none"/><path d=" M -309 -228 L -309 560.599 L 481.749 560.599 L 481.749 -228 L -309 -228 Z " fill="none"/><path d=" M -309 -228 L -309 560.599 L 481.749 560.599 L 481.749 -228 L -309 -228 Z " fill="none"/><path d=" M -309 -228 L -309 560.599 L 481.749 560.599 L 481.749 -228 L -309 -228 Z " fill="none"/><path d=" M -309 -228 L -309 560.599 L 481.749 560.599 L 481.749 -228 L -309 -228 Z " fill="none"/><path d=" M -309 -228 L -309 560.599 L 481.749 560.599 L 481.749 -228 L -309 -228 Z " fill="none"/><path d=" M -309 -228 L -309 560.599 L 481.749 560.599 L 481.749 -228 L -309 -228 Z " fill="none"/><path d=" M -309 -228 L -309 560.599 L 481.749 560.599 L 481.749 -228 L -309 -228 Z " fill="none"/><path d=" M -309 -228 L -309 560.599 L 481.749 560.599 L 481.749 -228 L -309 -228 Z " fill="none"/><path d=" M -309 -228 L -309 560.599 L 481.749 560.599 L 481.749 -228 L -309 -228 Z " fill="none"/><path d=" M -309 -228 L -309 560.599 L 481.749 560.599 L 481.749 -228 L -309 -228 Z " fill="none"/><path d=" M -309 -228 L -309 560.599 L 481.749 560.599 L 481.749 -228 L -309 -228 Z " fill="none"/><path d=" M -309 -228 L -309 560.599 L 481.749 560.599 L 481.749 -228 L -309 -228 Z " fill="none"/><path d=" M -309 -228 L -309 560.599 L 481.749 560.599 L 481.749 -228 L -309 -228 Z " fill="none"/><path d=" M -309 -228 L -309 560.599 L 481.749 560.599 L 481.749 -228 L -309 -228 Z " fill="none"/><path d=" M -309 -228 L -309 560.599 L 481.749 560.599 L 481.749 -228 L -309 -228 Z " fill="none"/><path d=" M -309 -228 L -309 560.599 L 481.749 560.599 L 481.749 -228 L -309 -228 Z " fill="none"/><path d=" M -309 -228 L -309 560.599 L 481.749 560.599 L 481.749 -228 L -309 -228 Z " fill="none"/><path d=" M -309 -228 L -309 560.599 L 481.749 560.599 L 481.749 -228 L -309 -228 Z " fill="none"/><path d=" M -309 -228 L -309 560.599 L 481.749 560.599 L 481.749 -228 L -309 -228 Z " fill="none"/><path d=" M -309 -228 L -309 560.599 L 481.749 560.599 L 481.749 -228 L -309 -228 Z " fill="none"/><path d=" M -210 -211 L -210 577.599 L 580.749 577.599 L 580.749 -211 L -210 -211 Z " fill="none"/><path d=" M -309 -228 L -309 560.599 L 481.749 560.599 L 481.749 -228 L -309 -228 Z " fill="none"/><path d=" M -309 -228 L -309 560.599 L 481.749 560.599 L 481.749 -228 L -309 -228 Z " fill="none"/><path d=" M -309 -228 L -309 560.599 L 481.749 560.599 L 481.749 -228 L -309 -228 Z " fill="none"/><path d=" M -309 -228 L -309 560.599 L 481.749 560.599 L 481.749 -228 L -309 -228 Z " fill="none"/><path d=" M -309 -228 L -309 560.599 L 481.749 560.599 L 481.749 -228 L -309 -228 Z " fill="none"/><path d=" M -309 -228 L -309 560.599 L 481.749 560.599 L 481.749 -228 L -309 -228 Z " fill="none"/><path d=" M -309 -228 L -309 560.599 L 481.749 560.599 L 481.749 -228 L -309 -228 Z " fill="none"/><path d=" M -309 -228 L -309 560.599 L 481.749 560.599 L 481.749 -228 L -309 -228 Z " fill="none"/><path d=" M -309 -228 L -309 560.599 L 481.749 560.599 L 481.749 -228 L -309 -228 Z " fill="none"/><path d=" M -309 -228 L -309 560.599 L 481.749 560.599 L 481.749 -228 L -309 -228 Z " fill="none"/><path d=" M -309 -228 L -309 560.599 L 481.749 560.599 L 481.749 -228 L -309 -228 Z " fill="none"/><path d=" M -309 -228 L -309 560.599 L 481.749 560.599 L 481.749 -228 L -309 -228 Z " fill="none"/><path d=" M -309 -228 L -309 560.599 L 481.749 560.599 L 481.749 -228 L -309 -228 Z " fill="none"/><path d=" M -309 -228 L -309 560.599 L 481.749 560.599 L 481.749 -228 L -309 -228 Z " fill="none"/><path d=" M -309 -228 L -309 560.599 L 481.749 560.599 L 481.749 -228 L -309 -228 Z " fill="none"/><path d=" M -309 -228 L -309 560.599 L 481.749 560.599 L 481.749 -228 L -309 -228 Z " fill="none"/><path d=" M -309 -228 L -309 560.599 L 481.749 560.599 L 481.749 -228 L -309 -228 Z " fill="none"/><path d=" M -309 -228 L -309 560.599 L 481.749 560.599 L 481.749 -228 L -309 -228 Z " fill="none"/><path d=" M -309 -228 L -309 560.599 L 481.749 560.599 L 481.749 -228 L -309 -228 Z " fill="none"/><path d=" M -309 -228 L -309 560.599 L 481.749 560.599 L 481.749 -228 L -309 -228 Z " fill="none"/><path d=" M -309 -228 L -309 560.599 L 481.749 560.599 L 481.749 -228 L -309 -228 Z " fill="none"/><path d=" M -309 -228 L -309 560.599 L 481.749 560.599 L 481.749 -228 L -309 -228 Z " fill="none"/><path d=" M -309 -228 L -309 560.599 L 481.749 560.599 L 481.749 -228 L -309 -228 Z " fill="none"/><path d=" M -309 -228 L -309 560.599 L 481.749 560.599 L 481.749 -228 L -309 -228 Z " fill="none"/><path d=" M -309 -228 L -309 560.599 L 481.749 560.599 L 481.749 -228 L -309 -228 Z " fill="none"/><path d=" M -309 -228 L -309 560.599 L 481.749 560.599 L 481.749 -228 L -309 -228 Z " fill="none"/><path d=" M -309 -228 L -309 560.599 L 481.749 560.599 L 481.749 -228 L -309 -228 Z " fill="none"/><clipPath id="_clipPath_A4pynhOO9My8LZAff8Ttf6xhumPDYinQ"><path d=" M -323 -260 L -323 528.599 L 467.749 528.599 L 467.749 -260 L -323 -260 Z " fill="rgb(255,255,255)"/></clipPath><g clip-path="url(#_clipPath_A4pynhOO9My8LZAff8Ttf6xhumPDYinQ)"><path d=" M 182.247 118.855 C 182.247 118.855 176.781 94.261 199.126 79.035 C 204.267 75.531 210.237 72.663 216.515 69.95 C 237.738 60.778 300.838 4.197 309 -20 C 309 -20 268.026 53.532 244.384 69.524 C 220.742 85.514 187.197 96.279 182.247 118.855 Z " fill="rgb(0,172,205)"/></g><clipPath id="_clipPath_fkHtUl1VU1obhw92Ys2RGPuKuW9wBNgP"><path d=" M -323 -260 L -323 528.599 L 467.749 528.599 L 467.749 -260 L -323 -260 Z " fill="rgb(255,255,255)"/></clipPath><g clip-path="url(#_clipPath_fkHtUl1VU1obhw92Ys2RGPuKuW9wBNgP)"><path d=" M 188.564 117.496 C 188.564 117.496 190.524 99.759 221.891 90.636 C 249.982 82.465 259.316 82.17 269.462 70.359 C 269.462 70.359 261.394 85.828 229.486 96.593 C 197.578 107.358 193.056 110.389 188.564 117.496 Z " fill="rgb(125,43,173)"/></g><clipPath id="_clipPath_LkSMnOOxMtidYxFQ4b67zxLS20VdFi2y"><path d=" M -323 -260 L -323 528.599 L 467.749 528.599 L 467.749 -260 L -323 -260 Z " fill="rgb(255,255,255)"/></clipPath><g clip-path="url(#_clipPath_LkSMnOOxMtidYxFQ4b67zxLS20VdFi2y)"><path d=" M 194.544 117.496 C 194.544 117.496 195.581 111.732 211.141 107.277 C 215.725 105.965 221.254 104.738 227.729 103.596 C 251.222 99.453 254.147 100.46 261.422 95.443 C 261.422 95.443 254.722 105.373 231.271 109.553 C 207.82 113.734 199.271 113.607 194.544 117.496 Z " fill="rgb(234,35,134)"/></g><clipPath id="_clipPath_iSbVBpulVRDAqPdHa08M21Thg6fERjBV"><path d=" M -323 -260 L -323 528.599 L 467.749 528.599 L 467.749 -260 L -323 -260 Z " fill="rgb(255,255,255)"/></clipPath><g clip-path="url(#_clipPath_iSbVBpulVRDAqPdHa08M21Thg6fERjBV)"><path d=" M 215.185 89.806 C 215.185 89.806 261.653 69.254 270.212 49.311 C 270.212 49.311 265.629 70.164 245.519 79.298 C 234.451 84.324 215.185 89.806 215.185 89.806 Z " fill="rgb(0,0,255)"/></g><path d=" M -323 -260 L -323 528.599 L 467.749 528.599 L 467.749 -260 L -323 -260 Z " fill="none" vector-effect="non-scaling-stroke" stroke-width="1" stroke="rgb(0,0,0)" stroke-linejoin="miter" stroke-linecap="square" stroke-miterlimit="3"/><path d=" M 229.486 100.251 C 228.502 100.253 251.933 95.443 269.462 79.035 C 269.462 79.035 261.422 100.18 229.486 100.251 Z " fill="rgb(155,13,141)"/><path d=" M -309 -228 L -309 560.599 L 481.749 560.599 L 481.749 -228 L -309 -228 Z " fill="none"/><path d=" M -309 -228 L -309 560.599 L 481.749 560.599 L 481.749 -228 L -309 -228 Z " fill="none"/><path d=" M -309 -228 L -309 560.599 L 481.749 560.599 L 481.749 -228 L -309 -228 Z " fill="none"/><path d=" M -309 -228 L -309 560.599 L 481.749 560.599 L 481.749 -228 L -309 -228 Z " fill="none"/><path d=" M -309 -228 L -309 560.599 L 481.749 560.599 L 481.749 -228 L -309 -228 Z " fill="none"/><path d=" M -309 -228 L -309 560.599 L 481.749 560.599 L 481.749 -228 L -309 -228 Z " fill="none"/><path d=" M -309 -228 L -309 560.599 L 481.749 560.599 L 481.749 -228 L -309 -228 Z " fill="none"/><path d=" M -309 -228 L -309 560.599 L 481.749 560.599 L 481.749 -228 L -309 -228 Z " fill="none"/><path d=" M -309 -228 L -309 560.599 L 481.749 560.599 L 481.749 -228 L -309 -228 Z " fill="none"/><path d=" M -309 -228 L -309 560.599 L 481.749 560.599 L 481.749 -228 L -309 -228 Z " fill="none"/><path d=" M -309 -228 L -309 560.599 L 481.749 560.599 L 481.749 -228 L -309 -228 Z " fill="none"/><path d=" M -309 -228 L -309 560.599 L 481.749 560.599 L 481.749 -228 L -309 -228 Z " fill="none"/><path d=" M -309 -228 L -309 560.599 L 481.749 560.599 L 481.749 -228 L -309 -228 Z " fill="none"/><path d=" M -309 -228 L -309 560.599 L 481.749 560.599 L 481.749 -228 L -309 -228 Z " fill="none"/><path d=" M -309 -228 L -309 560.599 L 481.749 560.599 L 481.749 -228 L -309 -228 Z " fill="none"/><path d=" M -309 -228 L -309 560.599 L 481.749 560.599 L 481.749 -228 L -309 -228 Z " fill="none"/><path d=" M -309 -228 L -309 560.599 L 481.749 560.599 L 481.749 -228 L -309 -228 Z " fill="none"/><path d=" M -309 -228 L -309 560.599 L 481.749 560.599 L 481.749 -228 L -309 -228 Z " fill="none"/><path d=" M -309 -228 L -309 560.599 L 481.749 560.599 L 481.749 -228 L -309 -228 Z " fill="none"/><path d=" M -309 -228 L -309 560.599 L 481.749 560.599 L 481.749 -228 L -309 -228 Z " fill="none"/><path d=" M -309 -228 L -309 560.599 L 481.749 560.599 L 481.749 -228 L -309 -228 Z " fill="none"/><path d=" M -309 -228 L -309 560.599 L 481.749 560.599 L 481.749 -228 L -309 -228 Z " fill="none"/><path d=" M -309 -228 L -309 560.599 L 481.749 560.599 L 481.749 -228 L -309 -228 Z " fill="none"/><path d=" M -309 -228 L -309 560.599 L 481.749 560.599 L 481.749 -228 L -309 -228 Z " fill="none"/><path d=" M -309 -228 L -309 560.599 L 481.749 560.599 L 481.749 -228 L -309 -228 Z " fill="none"/><path d=" M -309 -228 L -309 560.599 L 481.749 560.599 L 481.749 -228 L -309 -228 Z " fill="none"/><path d=" M -309 -228 L -309 560.599 L 481.749 560.599 L 481.749 -228 L -309 -228 Z " fill="none"/><path d=" M -309 -228 L -309 560.599 L 481.749 560.599 L 481.749 -228 L -309 -228 Z " fill="none"/><clipPath id="_clipPath_uUGYeYuIYQgSt4ZcLGHs5GBvXZPY8fLt"><path d=" M -309 -228 L -309 560.599 L 481.749 560.599 L 481.749 -228 L -309 -228 Z " fill="rgb(255,255,255)"/></clipPath><g clip-path="url(#_clipPath_uUGYeYuIYQgSt4ZcLGHs5GBvXZPY8fLt)"><line x1="375.958" y1="456.97" x2="375.886" y2="457.06"/></g><path d=" M -309 -228 L -309 560.599 L 481.749 560.599 L 481.749 -228 L -309 -228 Z " fill="none"/><path d=" M 16.02 118.12 L 4.38 86.02 L 10.56 86.02 L 19.62 112.54 L 28.92 86.02 L 35.04 86.02 L 22.98 118.12 L 16.02 118.12 L 16.02 118.12 Z  M 53.34 118.48 L 53.34 118.48 Q 48.24 118.48 45.18 117.04 L 45.18 117.04 L 45.18 117.04 Q 42.12 115.6 40.65 112.03 L 40.65 112.03 L 40.65 112.03 Q 39.18 108.46 39.18 102.04 L 39.18 102.04 L 39.18 102.04 Q 39.18 95.44 40.68 91.87 L 40.68 91.87 L 40.68 91.87 Q 42.18 88.3 45.21 86.95 L 45.21 86.95 L 45.21 86.95 Q 48.24 85.6 53.34 85.6 L 53.34 85.6 L 53.34 85.6 Q 58.44 85.6 61.47 86.98 L 61.47 86.98 L 61.47 86.98 Q 64.5 88.36 66 91.93 L 66 91.93 L 66 91.93 Q 67.5 95.5 67.5 102.04 L 67.5 102.04 L 67.5 102.04 Q 67.5 108.52 66.03 112.09 L 66.03 112.09 L 66.03 112.09 Q 64.56 115.66 61.53 117.07 L 61.53 117.07 L 61.53 117.07 Q 58.5 118.48 53.34 118.48 L 53.34 118.48 L 53.34 118.48 Z  M 53.34 113.56 L 53.34 113.56 Q 56.34 113.56 58.05 112.75 L 58.05 112.75 L 58.05 112.75 Q 59.76 111.94 60.63 109.45 L 60.63 109.45 L 60.63 109.45 Q 61.5 106.96 61.5 101.98 L 61.5 101.98 L 61.5 101.98 Q 61.5 97 60.63 94.51 L 60.63 94.51 L 60.63 94.51 Q 59.76 92.02 58.05 91.24 L 58.05 91.24 L 58.05 91.24 Q 56.34 90.46 53.34 90.46 L 53.34 90.46 L 53.34 90.46 Q 50.28 90.46 48.63 91.24 L 48.63 91.24 L 48.63 91.24 Q 46.98 92.02 46.11 94.51 L 46.11 94.51 L 46.11 94.51 Q 45.24 97 45.24 101.98 L 45.24 101.98 L 45.24 101.98 Q 45.24 107.02 46.11 109.51 L 46.11 109.51 L 46.11 109.51 Q 46.98 112 48.63 112.78 L 48.63 112.78 L 48.63 112.78 Q 50.28 113.56 53.34 113.56 L 53.34 113.56 L 53.34 113.56 Z  M 87.9 118.48 L 87.9 118.48 Q 82.8 118.48 79.74 117.04 L 79.74 117.04 L 79.74 117.04 Q 76.68 115.6 75.21 112.03 L 75.21 112.03 L 75.21 112.03 Q 73.74 108.46 73.74 102.04 L 73.74 102.04 L 73.74 102.04 Q 73.74 95.44 75.24 91.87 L 75.24 91.87 L 75.24 91.87 Q 76.74 88.3 79.77 86.95 L 79.77 86.95 L 79.77 86.95 Q 82.8 85.6 87.9 85.6 L 87.9 85.6 L 87.9 85.6 Q 93 85.6 96.03 86.98 L 96.03 86.98 L 96.03 86.98 Q 99.06 88.36 100.56 91.93 L 100.56 91.93 L 100.56 91.93 Q 102.06 95.5 102.06 102.04 L 102.06 102.04 L 102.06 102.04 Q 102.06 108.52 100.59 112.09 L 100.59 112.09 L 100.59 112.09 Q 99.12 115.66 96.09 117.07 L 96.09 117.07 L 96.09 117.07 Q 93.06 118.48 87.9 118.48 L 87.9 118.48 L 87.9 118.48 Z  M 87.9 113.56 L 87.9 113.56 Q 90.9 113.56 92.61 112.75 L 92.61 112.75 L 92.61 112.75 Q 94.32 111.94 95.19 109.45 L 95.19 109.45 L 95.19 109.45 Q 96.06 106.96 96.06 101.98 L 96.06 101.98 L 96.06 101.98 Q 96.06 97 95.19 94.51 L 95.19 94.51 L 95.19 94.51 Q 94.32 92.02 92.61 91.24 L 92.61 91.24 L 92.61 91.24 Q 90.9 90.46 87.9 90.46 L 87.9 90.46 L 87.9 90.46 Q 84.84 90.46 83.19 91.24 L 83.19 91.24 L 83.19 91.24 Q 81.54 92.02 80.67 94.51 L 80.67 94.51 L 80.67 94.51 Q 79.8 97 79.8 101.98 L 79.8 101.98 L 79.8 101.98 Q 79.8 107.02 80.67 109.51 L 80.67 109.51 L 80.67 109.51 Q 81.54 112 83.19 112.78 L 83.19 112.78 L 83.19 112.78 Q 84.84 113.56 87.9 113.56 L 87.9 113.56 L 87.9 113.56 Z  M 120.6 118.48 L 120.6 118.48 Q 117.6 118.48 113.73 118.21 L 113.73 118.21 L 113.73 118.21 Q 109.86 117.94 108.24 117.46 L 108.24 117.46 L 108.24 113.86 L 121.74 113.86 L 121.74 113.86 Q 124.62 113.86 126 113.05 L 126 113.05 L 126 113.05 Q 127.38 112.24 127.38 109.78 L 127.38 109.78 L 127.38 108.46 L 127.38 108.46 Q 127.38 104.62 122.22 104.62 L 122.22 104.62 L 117.54 104.62 L 117.54 104.62 Q 112.92 104.62 110.4 102.73 L 110.4 102.73 L 110.4 102.73 Q 107.88 100.84 107.88 96.46 L 107.88 96.46 L 107.88 94.72 L 107.88 94.72 Q 107.88 90.1 110.61 87.91 L 110.61 87.91 L 110.61 87.91 Q 113.34 85.72 119.64 85.72 L 119.64 85.72 L 119.64 85.72 Q 122.28 85.72 125.82 86.05 L 125.82 86.05 L 125.82 86.05 Q 129.36 86.38 131.28 86.8 L 131.28 86.8 L 131.28 90.4 L 118.56 90.4 L 118.56 90.4 Q 115.74 90.4 114.42 91.36 L 114.42 91.36 L 114.42 91.36 Q 113.1 92.32 113.1 94.72 L 113.1 94.72 L 113.1 95.92 L 113.1 95.92 Q 113.1 98.2 114.39 98.92 L 114.39 98.92 L 114.39 98.92 Q 115.68 99.64 118.56 99.64 L 118.56 99.64 L 123.36 99.64 L 123.36 99.64 Q 127.86 99.64 130.23 101.74 L 130.23 101.74 L 130.23 101.74 Q 132.6 103.84 132.6 107.74 L 132.6 107.74 L 132.6 110.2 L 132.6 110.2 Q 132.6 114.82 129.57 116.65 L 129.57 116.65 L 129.57 116.65 Q 126.54 118.48 120.6 118.48 L 120.6 118.48 L 120.6 118.48 Z  M 139.44 118.12 L 139.44 72.34 L 145.44 72.34 L 145.44 89.5 L 145.44 89.5 Q 147.72 87.82 150.72 86.65 L 150.72 86.65 L 150.72 86.65 Q 153.72 85.48 156.72 85.48 L 156.72 85.48 L 156.72 85.48 Q 161.7 85.48 164.16 88.51 L 164.16 88.51 L 164.16 88.51 Q 166.62 91.54 166.62 96.46 L 166.62 96.46 L 166.62 118.12 L 160.62 118.12 L 160.62 97.18 L 160.62 97.18 Q 160.62 94.36 158.97 92.65 L 158.97 92.65 L 158.97 92.65 Q 157.32 90.94 154.56 90.94 L 154.56 90.94 L 154.56 90.94 Q 152.04 90.94 149.97 91.66 L 149.97 91.66 L 149.97 91.66 Q 147.9 92.38 145.44 93.82 L 145.44 93.82 L 145.44 118.12 L 139.44 118.12 L 139.44 118.12 Z " fill-rule="evenodd" fill="rgb(255,255,255)"/></g></svg>