<svg xmlns="http://www.w3.org/2000/svg" xmlns:xlink="http://www.w3.org/1999/xlink" style="isolation:isolate" viewBox="0 0 128 128" width="128" height="128"><defs><clipPath id="_clipPath_Oh8MllmXbGFdCmVIQzDxi40N06MDrOXk"><rect width="128" height="128"/></clipPath></defs><g clip-path="url(#_clipPath_Oh8MllmXbGFdCmVIQzDxi40N06MDrOXk)"><clipPath id="_clipPath_xeUemu1wV1jwUn9HY2ycpIZoBqHpxvem"><rect x="-0.006" y="6.995" width="128.012" height="114.009" transform="matrix(1,0,0,1,0,0)" fill="rgb(255,255,255)"/></clipPath><g clip-path="url(#_clipPath_xeUemu1wV1jwUn9HY2ycpIZoBqHpxvem)"><g id="Group"><path d=" M 128 64.017 C 128 55.536 117.381 47.498 101.099 42.513 C 104.856 25.915 103.187 12.711 95.829 8.483 C 94.133 7.491 92.15 7.021 89.984 7.021 L 89.984 12.841 C 91.184 12.841 92.15 13.076 92.959 13.519 C 96.507 15.555 98.046 23.306 96.846 33.275 C 96.559 35.728 96.09 38.312 95.516 40.948 C 90.402 39.695 84.818 38.729 78.948 38.103 C 75.425 33.275 71.772 28.891 68.093 25.054 C 76.599 17.147 84.583 12.815 90.01 12.815 L 90.01 6.995 C 90.01 6.995 90.01 6.995 90.01 6.995 C 82.835 6.995 73.442 12.11 63.945 20.983 C 54.447 12.163 45.054 7.1 37.879 7.1 L 37.879 12.919 C 43.28 12.919 51.29 17.225 59.796 25.081 C 56.143 28.917 52.49 33.275 49.02 38.103 C 43.123 38.729 37.54 39.695 32.426 40.974 C 31.826 38.364 31.382 35.833 31.069 33.406 C 29.843 23.436 31.356 15.685 34.878 13.624 C 35.661 13.154 36.679 12.945 37.879 12.945 L 37.879 7.126 C 37.879 7.126 37.879 7.126 37.879 7.126 C 35.687 7.126 33.704 7.596 31.982 8.587 C 24.65 12.815 23.007 25.994 26.79 42.539 C 10.561 47.55 -0.006 55.562 -0.006 64.017 C -0.006 72.499 10.613 80.537 26.894 85.521 C 23.137 102.119 24.807 115.324 32.165 119.552 C 33.861 120.544 35.844 121.013 38.035 121.013 C 45.211 121.013 54.604 115.898 64.101 107.025 C 73.598 115.846 82.992 120.909 90.167 120.909 C 92.359 120.909 94.341 120.439 96.063 119.447 C 103.395 115.22 105.039 102.041 101.256 85.495 C 117.433 80.511 128 72.473 128 64.017 Z  M 94.028 46.611 C 93.063 49.977 91.863 53.448 90.506 56.919 C 89.436 54.831 88.314 52.744 87.088 50.656 C 85.888 48.568 84.609 46.532 83.331 44.549 C 87.036 45.097 90.61 45.775 94.028 46.611 Z  M 82.078 74.404 C 80.043 77.927 77.956 81.268 75.79 84.373 C 71.903 84.712 67.963 84.895 63.997 84.895 C 60.057 84.895 56.117 84.712 52.256 84.399 C 50.09 81.294 47.976 77.979 45.941 74.482 C 43.958 71.064 42.158 67.593 40.514 64.096 C 42.132 60.599 43.958 57.102 45.915 53.683 C 47.951 50.16 50.038 46.819 52.203 43.714 C 56.091 43.375 60.031 43.192 63.997 43.192 C 67.937 43.192 71.876 43.375 75.738 43.688 C 77.904 46.793 80.017 50.108 82.052 53.605 C 84.035 57.023 85.836 60.494 87.479 63.991 C 85.836 67.488 84.035 70.985 82.078 74.404 Z  M 90.506 71.011 C 91.915 74.508 93.115 78.005 94.107 81.398 C 90.689 82.233 87.088 82.938 83.357 83.486 C 84.635 81.476 85.914 79.415 87.114 77.301 C 88.314 75.213 89.436 73.099 90.506 71.011 Z  M 64.049 98.857 C 61.622 96.352 59.196 93.559 56.795 90.506 C 59.144 90.61 61.544 90.689 63.971 90.689 C 66.423 90.689 68.85 90.636 71.224 90.506 C 68.876 93.559 66.45 96.352 64.049 98.857 Z  M 44.637 83.486 C 40.932 82.938 37.357 82.259 33.939 81.424 C 34.905 78.058 36.105 74.587 37.461 71.116 C 38.531 73.204 39.653 75.291 40.879 77.379 C 42.106 79.467 43.358 81.502 44.637 83.486 Z  M 63.919 29.178 C 66.345 31.683 68.772 34.475 71.172 37.529 C 68.824 37.424 66.423 37.346 63.997 37.346 C 61.544 37.346 59.118 37.398 56.743 37.529 C 59.092 34.475 61.518 31.683 63.919 29.178 Z  M 44.611 44.549 C 43.332 46.558 42.054 48.62 40.854 50.734 C 39.653 52.822 38.531 54.91 37.461 56.997 C 36.052 53.5 34.852 50.003 33.861 46.611 C 37.279 45.802 40.879 45.097 44.611 44.549 Z  M 20.998 77.222 C 11.761 73.282 5.786 68.115 5.786 64.017 C 5.786 59.92 11.761 54.727 20.998 50.812 C 23.242 49.847 25.694 48.985 28.225 48.176 C 29.712 53.291 31.669 58.615 34.096 64.069 C 31.695 69.498 29.764 74.795 28.303 79.884 C 25.72 79.075 23.268 78.188 20.998 77.222 Z  M 35.035 114.515 C 31.486 112.48 29.947 104.729 31.147 94.76 C 31.434 92.307 31.904 89.723 32.478 87.087 C 37.592 88.34 43.176 89.305 49.046 89.932 C 52.569 94.76 56.222 99.144 59.901 102.98 C 51.394 110.888 43.41 115.22 37.983 115.22 C 36.809 115.194 35.818 114.959 35.035 114.515 Z  M 96.925 94.629 C 98.151 104.598 96.638 112.349 93.115 114.411 C 92.333 114.881 91.315 115.089 90.115 115.089 C 84.714 115.089 76.704 110.783 68.198 102.928 C 71.851 99.092 75.503 94.734 78.973 89.906 C 84.87 89.279 90.454 88.314 95.568 87.035 C 96.168 89.671 96.638 92.202 96.925 94.629 Z  M 106.97 77.222 C 104.726 78.188 102.273 79.049 99.742 79.858 C 98.255 74.743 96.298 69.419 93.872 63.965 C 96.272 58.537 98.203 53.239 99.664 48.15 C 102.247 48.959 104.7 49.847 106.996 50.812 C 116.233 54.753 122.207 59.92 122.207 64.017 C 122.181 68.115 116.206 73.308 106.97 77.222 Z " fill="rgb(97,218,251)"/><path d=" M 37.853 7.1 L 37.853 7.1 L 37.853 7.1 L 37.853 7.1 Z " fill="rgb(97,218,251)"/><path d=" M 52.047 64.017 C 52.047 57.435 57.39 52.091 63.971 52.091 C 70.552 52.091 75.895 57.435 75.895 64.017 C 75.895 70.6 70.552 75.944 63.971 75.944 C 57.39 75.944 52.047 70.6 52.047 64.017 Z " fill="rgb(97,218,251)"/><path d=" M 89.958 7.021 L 89.958 7.021 L 89.958 7.021 L 89.958 7.021 Z " fill="rgb(97,218,251)"/></g></g></g></svg>